# Blender 3.5.1
# www.blender.org
mtllib test1.mtl
o Cube.002
v 64.000000 -0.000000 -0.000002
v 64.000000 -0.000010 -64.000000
v 0.000002 -0.000005 0.000000
v 0.000000 -0.000015 -64.000000
v 32.000000 9.999993 -34.000000
v 14.000002 -0.000001 -10.000000
v 32.000000 -0.000008 -50.000000
v 14.000000 -0.000007 -50.000000
v 24.000000 -0.000001 -10.000000
v 24.000000 -0.000007 -50.000000
v 23.999996 21.999994 -50.000000
v 30.000000 -0.000002 -10.000000
v 30.000000 -0.000008 -50.000000
v 32.000004 9.999997 -10.000002
v 14.000000 9.999998 -10.000002
v 13.999998 9.999992 -50.000000
v 32.000000 9.999990 -50.000000
v 23.999998 9.999991 -50.000000
v 24.000000 9.999997 -10.000002
v 30.000000 9.999997 -10.000002
v 29.999998 9.999991 -50.000000
v 16.000000 -0.000007 -50.000000
v 16.000000 -0.000001 -10.000000
v 15.999998 21.999992 -50.000000
v 16.000000 9.999998 -10.000002
v 22.000000 -0.000001 -10.000000
v 22.000000 22.000002 -10.000004
v 22.000000 -0.000007 -50.000000
v 22.000000 9.999998 -10.000002
v 15.999998 9.999992 -50.000000
v 21.999998 9.999992 -50.000000
v 16.000000 1.999992 -50.000000
v 22.000000 1.999993 -50.000000
v 15.999998 11.999992 -50.000000
v 21.999998 11.999992 -50.000000
v 15.999998 19.999992 -50.000000
v 21.999998 19.999994 -50.000000
v 23.999998 19.999994 -50.000000
v 29.999998 19.999994 -50.000000
v 29.999998 11.999993 -50.000000
v 23.999998 11.999992 -50.000000
v 16.000000 22.000000 -10.000004
v 14.000000 22.000000 -10.000004
v 13.999998 21.999992 -50.000000
v 29.999998 21.999992 -50.000000
v 32.000000 21.999992 -50.000000
v 32.000000 1.999994 -34.000000
v 24.000000 22.000002 -10.000004
v 21.999996 21.999994 -50.000000
v 30.000000 22.000000 -10.000004
v 28.999998 23.999992 -50.000000
v 29.000000 24.000000 -10.000004
v 17.000000 24.000000 -10.000004
v 17.000000 23.999992 -50.000000
v 23.000000 30.000000 -10.000004
v 23.000000 29.999992 -50.000008
v 34.000000 21.999992 -50.000000
v 32.000000 9.999995 -26.000000
v 11.999998 21.999992 -50.000000
v 34.000000 22.000000 -10.000004
v 23.000002 33.000000 -10.000006
v 12.000000 22.000000 -10.000004
v 32.000004 1.999996 -26.000000
v 23.000000 32.999992 -50.000008
v 32.000000 9.999995 -22.000000
v 29.000000 24.000000 -12.000004
v 23.000000 30.000000 -12.000004
v 17.000000 24.000000 -12.000004
v 28.999998 23.999992 -48.000000
v 23.000000 29.999992 -48.000008
v 17.000000 23.999992 -48.000000
v 30.000000 -0.000008 -48.000000
v 24.000000 -0.000007 -48.000000
v 23.999998 9.999991 -48.000000
v 15.999998 9.999992 -48.000000
v 21.999998 9.999992 -48.000000
v 16.000000 1.999992 -48.000000
v 22.000000 1.999993 -48.000000
v 15.999998 11.999992 -48.000000
v 21.999998 11.999992 -48.000000
v 15.999998 19.999992 -48.000000
v 21.999998 19.999994 -48.000000
v 23.999998 19.999994 -48.000000
v 29.999998 19.999994 -48.000000
v 29.999998 9.999991 -48.000000
v 23.999998 11.999992 -48.000000
v 29.999998 11.999993 -48.000000
v 32.000004 1.999996 -22.000000
v 32.000000 19.999992 -46.000000
v 32.000000 19.999992 -38.000000
v 32.000004 -0.000002 -10.000000
v 32.000000 19.999996 -34.000000
v 32.000000 22.000000 -10.000004
v 32.000000 19.999996 -22.000004
v 32.000004 9.999997 -14.000002
v 32.000000 19.999996 -26.000004
v 32.000004 -0.000002 -14.000000
v 32.000000 19.999996 -14.000004
v 32.000000 21.999996 -14.000004
v 32.000000 11.999997 -14.000002
v 32.000000 11.999995 -26.000000
v 32.000000 11.999995 -22.000000
v 32.000000 11.999993 -34.000000
v 32.000000 11.999993 -38.000000
v 32.000000 11.999991 -46.000000
v 32.000000 1.999994 -46.000000
v 32.000000 1.999994 -38.000000
v 32.000000 1.999994 -34.000000
v 32.000004 -0.000004 -22.000000
v 32.000000 9.999995 -22.000000
v 32.000004 1.999996 -22.000000
v 32.000004 -0.000004 -26.000000
v 32.000000 9.999995 -26.000000
v 32.000000 21.999996 -26.000004
v 32.000004 1.999996 -26.000000
v 32.000000 21.999996 -22.000004
v 32.000000 21.999996 -34.000000
v 32.000000 -0.000006 -34.000000
v 32.000000 9.999993 -34.000000
v 32.000004 1.999998 -14.000000
v 32.000000 -0.000006 -38.000000
v 32.000000 9.999993 -38.000000
v 32.000000 21.999992 -38.000000
v 32.000000 -0.000006 -46.000000
v 32.000000 9.999991 -46.000000
v 32.000000 21.999992 -46.000000
v 32.000000 1.999994 -38.000000
v 32.000000 9.999993 -38.000000
v 32.000000 1.999994 -46.000000
v 32.000000 9.999991 -46.000000
v 32.000004 9.999997 -14.000002
v 32.000000 11.999991 -46.000000
v 32.000000 19.999992 -46.000000
v 32.000000 11.999993 -38.000000
v 32.000000 19.999992 -38.000000
v 32.000000 11.999993 -34.000000
v 32.000000 19.999996 -34.000000
v 32.000000 11.999995 -26.000000
v 32.000000 19.999996 -26.000004
v 32.000000 11.999995 -22.000000
v 32.000000 19.999996 -22.000004
v 32.000000 11.999997 -14.000002
v 32.000000 19.999996 -14.000004
v 32.000004 1.999998 -14.000000
v 30.000000 1.999996 -26.000000
v 30.000000 1.999994 -34.000000
v 30.000000 1.999998 -14.000000
v 30.000000 9.999997 -14.000002
v 30.000000 1.999994 -38.000000
v 30.000000 1.999994 -46.000000
v 30.000000 1.999996 -22.000000
v 30.000000 11.999997 -14.000002
v 30.000000 11.999995 -22.000000
v 30.000000 11.999995 -26.000000
v 30.000000 11.999993 -34.000000
v 29.999998 19.999992 -38.000000
v 29.999998 19.999992 -46.000000
v 29.999998 19.999996 -26.000004
v 29.999998 19.999996 -34.000000
v 30.000000 19.999996 -14.000004
v 30.000000 19.999996 -22.000004
v 29.999998 9.999991 -46.000000
v 30.000000 9.999993 -38.000000
v 30.000000 9.999993 -34.000000
v 30.000000 9.999995 -26.000000
v 29.999998 11.999993 -38.000000
v 29.999998 11.999991 -46.000000
v 30.000000 9.999995 -22.000000
vn -0.0000 1.0000 -0.0000
vn -0.0000 -0.0000 1.0000
vn -1.0000 -0.0000 -0.0000
vn -0.0000 -0.0000 -1.0000
vn 1.0000 -0.0000 -0.0000
vn 0.7071 -0.7071 -0.0000
vn -0.0000 -1.0000 -0.0000
vn 1.0000 0.0001 -0.0000
vn -1.0000 -0.0001 -0.0000
vn 0.7071 0.7071 -0.0000
vn -0.7071 0.7071 -0.0000
vn -0.7071 -0.7071 -0.0000
vt 0.288937 0.635007
vt 0.288937 0.635007
vt 0.288937 0.635007
vt 0.288937 0.635007
vt 0.232773 0.689189
vt 0.231516 0.686939
vt 0.234228 0.688098
vt 0.232773 0.689189
vt 0.231516 0.686939
vt 0.232773 0.689189
vt 0.234228 0.688098
vt 0.232773 0.689189
vt 0.344794 0.898006
vt 0.232773 0.689189
vt 0.234228 0.688098
vt 0.232773 0.689189
vt 0.344794 0.898006
vt 0.234228 0.688098
vt 0.232773 0.689189
vt 0.231516 0.686939
vt 0.234228 0.688098
vt 0.231516 0.686939
vt 0.232773 0.689189
vt 0.232773 0.689189
vt 0.232773 0.689189
vt 0.234228 0.688098
vt 0.234228 0.688098
vt 0.232773 0.689189
vt 0.232773 0.689189
vt 0.234228 0.688098
vt 0.232773 0.689189
vt 0.234228 0.688098
vt 0.234228 0.688098
vt 0.234228 0.688098
vt 0.232773 0.689189
vt 0.234228 0.688098
vt 0.232773 0.689189
vt 0.232773 0.689189
vt 0.130243 0.685031
vt 0.232773 0.689189
vt 0.130243 0.685031
vt 0.232773 0.689189
vt 0.232773 0.689189
vt 0.130243 0.685031
vt 0.130243 0.685031
vt 0.232773 0.689189
vt 0.232773 0.689189
vt 0.232773 0.689189
vt 0.232773 0.689189
vt 0.232773 0.689189
vt 0.232773 0.689189
vt 0.130243 0.685031
vt 0.232773 0.689189
vt 0.130243 0.685031
vt 0.234228 0.688098
vt 0.231516 0.686939
vt 0.236286 0.690248
vt 0.234228 0.688098
vt 0.231516 0.686939
vt 0.232773 0.689189
vt 0.236286 0.690248
vt 0.232773 0.689189
vt 0.232773 0.689189
vt 0.236286 0.690248
vt 0.130243 0.685031
vt 0.234228 0.688098
vt 0.232773 0.689189
vt 0.234228 0.688098
vt 0.133344 0.678131
vt 0.130474 0.685225
vt 0.234228 0.688098
vt 0.234228 0.688098
vt 0.133344 0.678131
vt 0.130474 0.685225
vt 0.234228 0.688098
vt 0.133344 0.678131
vt 0.130474 0.685225
vt 0.236286 0.690248
vt 0.609055 0.797297
vt 0.133344 0.678131
vt 0.232773 0.689189
vt 0.236286 0.690248
vt 0.609055 0.797297
vt 0.133344 0.678131
vt 0.236286 0.690248
vt 0.609055 0.797297
vt 0.234228 0.688098
vt 0.609055 0.797297
vt 0.234228 0.688098
vt 0.236286 0.690248
vt 0.609055 0.797297
vt 0.234228 0.688098
vt 0.130243 0.685031
vt 0.232773 0.689189
vt 0.609055 0.797297
vt 0.133344 0.678131
vt 0.232773 0.689189
vt 0.234228 0.688098
vt 0.234228 0.688098
vt 0.234228 0.688098
vt 0.333977 0.689851
vt 0.130474 0.685225
vt 0.333977 0.689851
vt 0.130474 0.685225
vt 0.333977 0.689851
vt 0.130474 0.685225
vt 0.623149 0.583052
vt 0.232773 0.689189
vt 0.344794 0.898006
vt 0.623149 0.583052
vt 0.232773 0.689189
vt 0.344794 0.898006
vt 0.623149 0.583052
vt 0.232773 0.689189
vt 0.344225 0.416554
vt 0.232773 0.689189
vt 0.344225 0.416554
vt 0.232773 0.689189
vt 0.344225 0.416554
vt 0.130243 0.685031
vt 0.232773 0.689189
vt 0.344225 0.416554
vt 0.130243 0.685031
vt 0.232773 0.689189
vt 0.344225 0.416554
vt 0.232773 0.689189
vt 0.130243 0.685031
vt 0.344225 0.416554
vt 0.130243 0.685031
vt 0.232773 0.689189
vt 0.344225 0.416554
vt 0.232773 0.689189
vt 0.344225 0.416554
vt 0.232773 0.689189
vt 0.344225 0.416554
vt 0.232773 0.689189
vt 0.344225 0.416554
vt 0.232773 0.689189
vt 0.623149 0.583052
vt 0.232773 0.689189
vt 0.232773 0.689189
vt 0.344225 0.416554
vt 0.130243 0.685031
vt 0.344225 0.416554
vt 0.232773 0.689189
vt 0.130243 0.685031
vt 0.130243 0.685031
vt 0.232773 0.689189
vt 0.232773 0.689189
vt 0.234228 0.688098
vt 0.232773 0.689189
vt 0.232773 0.689189
vt 0.236286 0.690248
vt 0.234228 0.688098
vt 0.232773 0.689189
vt 0.232773 0.689189
vt 0.000000 0.000000
vt 0.232773 0.689189
vt 0.232773 0.689189
vt 0.232773 0.689189
vt 0.232773 0.689189
vt 0.236286 0.690248
vt 0.232773 0.689189
vt 0.232773 0.689189
vt 0.232773 0.689189
vt 0.232773 0.689189
vt 0.000000 0.000000
vt 0.232773 0.689189
vt 0.232773 0.689189
vt 0.232773 0.689189
vt 0.232773 0.689189
vt 0.232773 0.689189
vt 0.232773 0.689189
vt 0.232773 0.689189
vt 0.232773 0.689189
vt 0.232773 0.689189
vt 0.232773 0.689189
vt 0.232773 0.689189
vt 0.236286 0.690248
vt 0.232773 0.689189
vt 0.232773 0.689189
vt 0.236286 0.690248
vt 0.232773 0.689189
vt 0.236286 0.690248
vt 0.232773 0.689189
vt 0.232773 0.689189
vt 0.232773 0.689189
vt 0.232773 0.689189
vt 0.232773 0.689189
vt 0.232773 0.689189
vt 0.236286 0.690248
vt 0.232773 0.689189
vt 0.232773 0.689189
vt 0.232773 0.689189
vt 0.236286 0.690248
vt 0.232773 0.689189
vt 0.130243 0.685031
vt 0.232773 0.689189
vt 0.232773 0.689189
vt 0.130243 0.685031
vt 0.232773 0.689189
vt 0.232773 0.689189
vt 0.232773 0.689189
vt 0.130243 0.685031
vt 0.232773 0.689189
vt 0.232773 0.689189
vt 0.130243 0.685031
vt 0.232773 0.689189
vt 0.232773 0.689189
vt 0.130243 0.685031
vt 0.232773 0.689189
vt 0.232773 0.689189
vt 0.130243 0.685031
vt 0.232773 0.689189
vt 0.130243 0.685031
vt 0.000000 0.000000
vt 0.000000 0.000000
vt 0.232773 0.689189
vt 0.130243 0.685031
vt 0.232773 0.689189
vt 0.232773 0.689189
vt 0.232773 0.689189
vt 0.130243 0.685031
vt 0.130243 0.685031
vt 0.344225 0.416554
vt 0.232773 0.689189
vt 0.130243 0.685031
vt 0.344225 0.416554
vt 0.232773 0.689189
vt 0.344225 0.416554
vt 0.130243 0.685031
vt 0.344225 0.416554
vt 0.232773 0.689189
vt 0.344225 0.416554
vt 0.130243 0.685031
vt 0.232773 0.689189
vt 0.344225 0.416554
vt 0.130243 0.685031
vt 0.232773 0.689189
vt 0.344225 0.416554
vt 0.130243 0.685031
vt 0.130243 0.685031
vt 0.344225 0.416554
vt 0.232773 0.689189
vt 0.130243 0.685031
vt 0.000000 0.000000
vt 0.344225 0.416554
vt 0.344225 0.416554
vt 0.232773 0.689189
vt 0.130243 0.685031
vt 0.344225 0.416554
vt 0.130243 0.685031
vt 0.344225 0.416554
vt 0.232773 0.689189
vt 0.344225 0.416554
vt 0.232773 0.689189
vt 0.344225 0.416554
vt 0.232773 0.689189
vt 0.344225 0.416554
vt 0.232773 0.689189
vt 0.344225 0.416554
vt 0.232773 0.689189
vt 0.000000 0.000000
vt 0.344225 0.416554
vt 0.232773 0.689189
vt 0.344225 0.416554
vt 0.232773 0.689189
vt 0.344225 0.416554
vt 0.232773 0.689189
vt 0.344225 0.416554
vt 0.232773 0.689189
vt 0.344225 0.416554
vt 0.232773 0.689189
vt 0.344225 0.416554
vt 0.130243 0.685031
vt 0.232773 0.689189
vt 0.344225 0.416554
vt 0.130243 0.685031
vt 0.232773 0.689189
vt 0.344225 0.416554
vt 0.232773 0.689189
s 0
usemtl Material.003
f 1/1/1 2/2/1 4/4/1 3/3/1
f 25/32/2 42/55/2 43/58/2 15/21/2
f 15/20/3 43/56/3 44/59/3 16/22/3
f 21/28/4 40/51/4 39/50/4 45/62/4 46/63/4 17/24/4
f 17/24/5 46/63/5 126/196/5 89/148/5 105/170/5 125/194/5
f 31/38/4 35/46/4 37/48/4 49/67/4 11/14/4 38/49/4 41/53/4 18/25/4
f 20/27/2 50/68/2 48/66/2 19/26/2
f 18/25/4 41/53/4 40/51/4 21/28/4
f 41/53/5 38/49/5 83/136/5 86/141/5
f 12/15/2 20/27/2 19/26/2 9/11/2
f 28/35/4 33/42/4 31/38/4 18/25/4 10/12/4
f 7/8/5 17/24/5 125/194/5 106/171/5 124/193/5
f 13/16/4 21/28/4 17/24/4 7/8/4
f 6/6/3 15/20/3 16/22/3 8/9/3
f 23/30/2 25/32/2 15/21/2 6/7/2
f 91/150/2 14/18/2 20/27/2 12/15/2
f 14/18/2 93/154/2 50/68/2 20/27/2
f 26/33/2 29/36/2 25/32/2 23/30/2
f 8/10/4 16/23/4 30/37/4 32/40/4 22/29/4
f 16/23/4 44/60/4 24/31/4 36/47/4 34/43/4 30/37/4
f 29/36/2 27/34/2 42/55/2 25/32/2
f 19/26/2 48/66/2 27/34/2 29/36/2
f 9/11/2 19/26/2 29/36/2 26/33/2
f 22/29/4 32/40/4 33/42/4 28/35/4
f 30/37/4 34/43/4 35/46/4 31/38/4
f 55/75/6 53/72/6 68/100/6 67/99/6
f 93/153/7 99/162/7 116/182/7 114/179/7 117/184/7 123/191/7 126/195/7 46/64/7 57/78/7 60/85/7
f 44/61/7 43/57/7 62/90/7 59/82/7
f 48/66/3 50/68/3 93/154/3 60/87/8 62/92/9 43/58/3 42/55/5 27/34/3
f 60/86/10 57/79/10 64/95/10 61/88/10
f 54/74/6 56/77/6 70/104/6 71/106/6
f 59/83/11 62/91/11 61/88/11 64/95/11
f 142/219/1 140/215/1 153/245/1 152/242/1
f 55/75/2 52/71/2 60/87/2 61/89/2
f 52/71/2 53/72/2 62/92/2 60/87/2
f 53/72/2 55/75/2 61/89/2 62/92/2
f 51/69/4 56/76/4 64/96/4 57/80/4
f 54/73/4 51/69/4 57/80/4 59/84/4
f 56/76/4 54/73/4 59/84/4 64/96/4
f 68/100/2 66/98/2 67/99/2
f 53/72/1 52/71/1 66/98/1 68/100/1
f 52/71/12 55/75/12 67/99/12 66/98/12
f 69/101/4 71/105/4 70/103/4
f 51/70/1 54/74/1 71/106/1 69/102/1
f 56/77/12 51/70/12 69/102/12 70/104/12
f 73/110/4 74/113/4 85/139/4 72/107/4
f 30/37/7 31/38/7 76/118/7 75/116/7
f 37/48/4 36/47/4 24/31/4 49/67/4
f 21/28/3 13/16/3 72/108/3 85/140/3
f 39/50/4 38/49/4 11/14/4 45/62/4
f 18/25/7 21/28/7 85/140/7 74/114/7
f 80/128/4 79/125/4 81/131/4 82/133/4
f 87/144/4 86/142/4 83/135/4 84/137/4
f 78/122/4 77/119/4 75/115/4 76/117/4
f 33/41/1 32/39/1 77/120/1 78/123/1
f 39/50/3 40/51/3 87/145/3 84/138/3
f 34/43/5 36/47/5 81/132/5 79/126/5
f 35/45/1 34/44/1 79/127/1 80/129/1
f 32/40/5 30/37/5 75/116/5 77/121/5
f 36/47/7 37/48/7 82/134/7 81/132/7
f 37/48/3 35/46/3 80/130/3 82/134/3
f 31/38/3 33/42/3 78/124/3 76/118/3
f 10/12/5 18/25/5 74/114/5 73/111/5
f 38/49/7 39/50/7 84/138/7 83/136/7
f 40/52/1 41/54/1 86/143/1 87/146/1
f 90/149/5 89/148/5 126/196/5 123/192/5
f 125/194/5 105/170/5 104/169/5 122/190/5
f 103/168/5 101/165/5 113/178/5 119/187/5
f 102/166/5 100/164/5 95/158/5 110/175/5
f 130/202/7 128/199/7 163/269/7 162/267/7
f 124/193/5 106/171/5 107/172/5 121/189/5
f 121/189/5 107/172/5 122/190/5 119/187/5 108/173/5 118/186/5
f 118/186/5 108/173/5 115/181/5 112/177/5
f 112/177/5 115/181/5 113/178/5 110/175/5 111/176/5 109/174/5
f 109/174/5 111/176/5 120/188/5 97/160/5
f 99/163/5 98/161/5 94/156/5 116/183/5
f 114/180/5 116/183/5 94/156/5 102/166/5 110/175/5 113/178/5 101/165/5 96/159/5
f 97/160/5 120/188/5 95/158/5 14/19/5 91/151/5
f 114/180/5 96/159/5 92/152/5 117/185/5
f 123/192/5 117/185/5 92/152/5 103/168/5 119/187/5 122/190/5 104/169/5 90/149/5
f 93/155/5 14/19/5 95/158/5 100/164/5 98/161/5 99/163/5
f 131/203/4 144/222/4 147/229/4 148/233/4
f 140/216/2 141/217/2 161/263/2 153/246/2
f 63/93/1 47/65/1 146/227/1 145/224/1
f 102/167/1 94/157/2 141/217/1 140/216/2
f 149/234/5 150/237/5 162/266/5 163/268/5
f 147/230/5 151/240/5 168/280/5 148/232/5
f 145/225/5 146/228/5 164/270/5 165/272/5
f 166/274/5 167/277/5 157/255/5 156/253/5
f 159/259/5 158/257/5 154/248/5 155/251/5
f 161/264/5 160/261/5 152/243/5 153/247/5
f 65/97/7 131/203/7 148/233/7 168/281/7
f 139/214/4 138/212/4 154/249/4 158/258/4
f 138/213/1 136/210/1 155/252/1 154/250/1
f 133/206/7 135/209/7 156/254/7 157/256/7
f 127/197/1 129/200/1 150/238/1 149/235/1
f 5/5/7 58/81/7 165/273/7 164/271/7
f 137/211/7 139/214/7 158/258/7 159/260/7
f 129/201/2 130/202/2 162/267/2 150/239/2
f 134/207/1 132/204/1 167/278/1 166/275/1
f 58/81/4 63/94/4 145/226/4 165/273/4
f 141/218/7 143/221/7 160/262/7 161/265/7
f 128/199/4 127/198/4 149/236/4 163/269/4
f 144/223/1 88/147/1 151/241/1 147/231/1
f 135/209/4 134/208/4 166/276/4 156/254/4
f 143/221/4 142/220/4 152/244/4 160/262/4
f 132/205/2 133/206/2 157/256/2 167/279/2
f 10/13/1 73/112/1 72/109/1 13/17/1
